<svg id="Слой_1" data-name="Слой 1" xmlns="http://www.w3.org/2000/svg" viewBox="0 0 299.3 162.01"><defs><style>.cls-1{fill:#fcfcfc;}.cls-2{fill:#ea5421;}.cls-3{fill:#fff;stroke:#fff;stroke-miterlimit:10;stroke-width:2px;}</style></defs><path class="cls-1" d="M165.58,151.67A14.46,14.46,0,0,0,169,151c25.5-6.37,50.89-13.2,76.62-18.61,15-3.16,30-6.65,44.91-10.23a16.63,16.63,0,0,1,3.34-.55,4,4,0,0,1,1.78,7.73,15.06,15.06,0,0,1-2.94,1c-19.58,4.8-39.3,9-59,13.37-20,4.42-39.69,9.79-59.52,14.72-4.66,1.16-9.35,2.23-14,3.32a8.38,8.38,0,0,1-4.47-.05A4.69,4.69,0,0,1,152.4,156c0-.09,0-.18.07-.27a12,12,0,0,1,1.54-3c3-4.89,6.53-9.46,9.32-14.49a31.52,31.52,0,0,0,1.7-3.57c.32-.79,0-1.29-.94-1.2-.75.07-1.49.23-2.23.36L92.55,146c-1.86.33-3.72.58-5.59.83a5.52,5.52,0,0,1-3.56-.62,3.95,3.95,0,0,1-.06-6.93,7.31,7.31,0,0,1,2.4-.76c25.72-4.47,51.47-8.74,77.13-13.47a16.63,16.63,0,0,1,4.5-.35,7.07,7.07,0,0,1,6.77,7,14.92,14.92,0,0,1-1.66,7.09,79.76,79.76,0,0,1-5.64,9.78C166.31,149.44,165.44,150.16,165.58,151.67Z" transform="translate(1 -0.01)"/><path class="cls-2" d="M.07,25.78C.07,19.47.26,13.15,0,6.85S5.72-1,9.86.78a5.48,5.48,0,0,1,3.25,5.5c0,3.86-.07,7.72,0,11.58,0,1-.74,2.38.91,2.85,2,.56,3.9,0,4.73-1.33C20.9,15.83,23,12.26,25.12,8.7c1.16-1.94,2.24-3.93,3.52-5.79A6,6,0,0,1,35.78.36c3.83,1.37,5.27,5.08,3.18,8.7-1.83,3.18-3.91,6.21-5.88,9.31-.81,1.27-1.6,2.55-2.44,3.81a1.17,1.17,0,0,0,0,1.65,1.23,1.23,0,0,0,.33.23c3.58,2.53,5.77,6.12,7.57,10,1.26,2.73,2.68,5.39,4,8.12,1.78,3.84.85,7.11-2.38,8.7a6.61,6.61,0,0,1-8.93-2.77,3.78,3.78,0,0,1-.17-.35c-1.74-3.44-3.31-7-4.83-10.52C23.68,31.31,19.65,31.4,14,31.7c-.93.05-.88.82-.89,1.48V44.72c0,4.87-2.75,7.31-7.54,6.79C2.14,51.13.13,49,.1,45.51,0,39,.07,32.37.07,25.78Z" transform="translate(1 -0.01)"/><path class="cls-2" d="M98.71,26.19V7.55c0-4.63,2.07-6.74,6.72-6.79h18.08a22.43,22.43,0,0,1,5.59.71,14.65,14.65,0,0,1,11.51,14A24.29,24.29,0,0,1,140.5,20c-1,7.67-6.23,12.66-14,13.49-4,.44-8.09.15-12.14.23-2.47,0-2.49,0-2.51,2.46v9c-.07,4.16-2.38,6.38-6.58,6.37s-6.48-2.25-6.51-6.44C98.68,38.84,98.71,32.53,98.71,26.19Zm13.12-9h0v5.09c0,.76.29,1.25,1.14,1.25,3.47,0,7,.26,10.41-.4,2.93-.55,4.52-2.58,4.68-5.56.18-3.41-1.4-5.6-4.74-6.34s-6.94-.35-10.41-.42c-.89,0-1.09.56-1.09,1.3,0,1.78,0,3.47,0,5.16Z" transform="translate(1 -0.01)"/><path class="cls-2" d="M163.84,40.92h-9.6a2,2,0,0,0-2.13,1.4c-.79,1.92-1.58,3.84-2.54,5.67-1.69,3.19-3.67,4.14-7.19,3.67a4.93,4.93,0,0,1-4.53-5.3,4.29,4.29,0,0,1,.18-1A13,13,0,0,1,139,43q8.6-18.57,17.21-37.13c1.43-3.09,3.46-5.35,7.18-5.51a7.47,7.47,0,0,1,7.5,4.5c1.56,3.11,3,6.28,4.46,9.44q6.62,14.19,13.2,28.39a12.13,12.13,0,0,1,1.22,3.45,4.6,4.6,0,0,1-3.51,5.36c-4,.74-6.2,0-8-3.12A34.32,34.32,0,0,1,175.78,43a2.78,2.78,0,0,0-3.16-2.08C169.69,41,166.76,40.92,163.84,40.92Zm6.61-10.19-6.72-16c-2.36,5.65-4.46,10.7-6.66,16Z" transform="translate(1 -0.01)"/><path class="cls-2" d="M71.07,22.93c1-.48,1.12-1.49,1.53-2.3C75,15.85,77.42,11,79.82,6.25a17.68,17.68,0,0,1,2.56-4A4.82,4.82,0,0,1,85.5.48c2.53-.29,5-.14,6.62,2.14,1.54,2.12,1,4.31-.08,6.41Q84.38,24.3,76.67,39.54c-1.45,2.86-2.86,5.73-4.42,8.52-1.32,2.35-3.24,3.83-6.17,3.7-4.48-.2-6.88-3.57-5.26-7.74a29.77,29.77,0,0,1,2.66-5.29c1.27-2,1.17-3.59-.12-5.63-4.88-7.71-9.55-15.56-14.31-23.35A7.77,7.77,0,0,1,47.54,5a4.48,4.48,0,0,1,1.78-3.38,6.75,6.75,0,0,1,9.12,1A49.09,49.09,0,0,1,61.5,7.37c2.66,4.44,5.28,8.91,7.94,13.34C69.92,21.47,70.2,22.41,71.07,22.93Z" transform="translate(1 -0.01)"/><path class="cls-3" d="M17.61,118.66a4,4,0,0,1-3.6-1.78q-1.17-1.78.18-4.42l4.91-9.54L.81,73.37a3.88,3.88,0,0,1-.33-4.2,4,4,0,0,1,3.74-1.85A4,4,0,0,1,7,68.17a10,10,0,0,1,1.89,2.42L23.38,94.52,35.55,70.67a9.85,9.85,0,0,1,1.68-2.35,3.8,3.8,0,0,1,2.88-1A4.16,4.16,0,0,1,43.74,69q1.21,1.71-.21,4.48l-21.29,41.8a8.66,8.66,0,0,1-1.68,2.31A4,4,0,0,1,17.61,118.66Z" transform="translate(1 -0.01)"/><path class="cls-3" d="M55.56,118.66Q51,118.66,51,114V72.52c0-3.09,1.55-4.63,4.63-4.63H72.79q8.26,0,12.75,4.13T90,83.55Q90,91,85.54,95.12T72.79,99.29H60.12V114Q60.12,118.66,55.56,118.66ZM60.12,92.1H71.37q9.82,0,9.82-8.55t-9.82-8.47H60.12Z" transform="translate(1 -0.01)"/><path class="cls-3" d="M92.59,118.66A3.86,3.86,0,0,1,89,117a4.11,4.11,0,0,1,.07-4.13l18.79-41.66a6.82,6.82,0,0,1,2.25-3,5.29,5.29,0,0,1,3-.89,5.19,5.19,0,0,1,3,.89,6.81,6.81,0,0,1,2.24,3l18.87,41.66q1.14,2.49.14,4.16a3.63,3.63,0,0,1-3.41,1.68,4.57,4.57,0,0,1-3.1-1,8.05,8.05,0,0,1-2-3l-3.56-8.26H100.85l-3.49,8.26a9.23,9.23,0,0,1-1.93,3A4,4,0,0,1,92.59,118.66ZM113,77.79l-9,21.43h18.23l-9-21.43Z" transform="translate(1 -0.01)"/><path class="cls-3" d="M183.09,118.66q-4.56,0-4.56-4.7V75.51H160.59v10a63.69,63.69,0,0,1-1.5,14.81,32.83,32.83,0,0,1-4.31,10.46,25.59,25.59,0,0,1-6.94,7.12,4,4,0,0,1-3.2.82,4.68,4.68,0,0,1-2.85-1.88,3.86,3.86,0,0,1-.75-3.21,4.71,4.71,0,0,1,2-2.7,16.92,16.92,0,0,0,5.09-5.49,27,27,0,0,0,3-8.83,76.45,76.45,0,0,0,1-13.45V72.73q0-4.85,4.85-4.84H182.8q4.84,0,4.84,4.84V114Q187.64,118.66,183.09,118.66Z" transform="translate(1 -0.01)"/><path class="cls-3" d="M199.11,118.66a3.86,3.86,0,0,1-3.56-1.71,4.11,4.11,0,0,1,.07-4.13l18.79-41.66a6.82,6.82,0,0,1,2.25-3,5.31,5.31,0,0,1,3-.89,5.19,5.19,0,0,1,3,.89,6.81,6.81,0,0,1,2.24,3l18.87,41.66q1.14,2.49.14,4.16a3.63,3.63,0,0,1-3.41,1.68,4.57,4.57,0,0,1-3.1-1,8.05,8.05,0,0,1-2-3l-3.56-8.26H207.37l-3.49,8.26a9.23,9.23,0,0,1-1.93,3A4,4,0,0,1,199.11,118.66Zm20.43-40.87-9,21.43h18.23l-9-21.43Z" transform="translate(1 -0.01)"/></svg>